<svg width="234" height="78" viewBox="0 0 234 78" fill="none" xmlns="http://www.w3.org/2000/svg">
<path d="M138.18 33.5207C144.03 27.7166 153.513 27.7166 159.363 33.5207C165.213 39.3291 165.213 48.7457 159.363 54.5499L136.667 77.0833L113.971 54.5499C108.121 48.7457 108.121 39.3291 113.971 33.5207C119.821 27.7166 129.305 27.7166 135.155 33.5207L136.667 35.0207L138.18 33.5207V33.5207ZM146.013 7.32075C149.93 11.2499 152.276 16.1458 153.051 21.2291C147.496 20.1958 141.638 21.1874 136.667 24.1999C127.709 18.7707 115.859 19.9083 108.101 27.6083C99.2214 36.4208 98.9756 50.5874 107.359 59.6957L108.101 60.4666L118.188 70.4833L111.667 77.0208L76.3339 41.6374C67.5714 31.8207 67.9006 16.7457 77.3214 7.32075C86.7589 -2.11258 101.855 -2.42925 111.671 6.37075C121.459 -2.41675 136.584 -2.12508 146.013 7.32075V7.32075Z" fill="#FF0000"/>
<path d="M7.54969 12.744L14.2697 12.6C14.5257 12.6 14.6537 12.872 14.6537 13.416C14.6537 13.96 14.5257 14.232 14.2697 14.232H12.2057C11.4057 14.232 10.8777 14.392 10.6217 14.712C10.3657 15 10.2377 15.576 10.2377 16.44V39.192C10.2377 42.008 10.5737 43.416 11.2457 43.416H14.0297C14.2857 43.416 14.4137 43.688 14.4137 44.232C14.4137 44.744 14.2857 45 14.0297 45L7.98169 44.952L1.26169 45.096C1.00569 45.096 0.877688 44.824 0.877688 44.28C0.877688 43.736 1.00569 43.464 1.26169 43.464H3.32569C4.12569 43.464 4.65369 43.32 4.90969 43.032C5.16569 42.712 5.29369 42.12 5.29369 41.256V18.504C5.29369 15.688 4.95769 14.28 4.28569 14.28H1.50169C1.24569 14.28 1.11769 14.024 1.11769 13.512C1.11769 12.968 1.24569 12.696 1.50169 12.696L7.54969 12.744ZM40.8036 21.912L45.2196 21.816C45.4116 21.816 45.5076 22.056 45.5076 22.536C45.5076 22.984 45.4116 23.208 45.2196 23.208H43.5396C43.0916 23.208 42.8036 23.32 42.6756 23.544C42.0996 24.536 41.8116 31.736 41.8116 45.144C41.8116 45.464 41.5396 45.624 40.9956 45.624C40.4836 45.624 40.1156 45.512 39.8916 45.288C33.4916 37.672 28.3396 31.496 24.4356 26.76H24.2916C24.3876 32.424 24.4836 37.16 24.5796 40.968C24.5796 42.632 24.8196 43.464 25.2996 43.464H27.2196C27.4116 43.464 27.5076 43.72 27.5076 44.232C27.5076 44.712 27.4116 44.952 27.2196 44.952H23.2356L18.8676 45.048C18.7076 45.048 18.6276 44.824 18.6276 44.376C18.6276 43.896 18.7076 43.656 18.8676 43.656H20.0196C21.0116 43.656 21.5236 43.336 21.5556 42.696C22.0356 37.512 22.2756 31.448 22.2756 24.504C21.7636 23.896 21.3316 23.544 20.9796 23.448C20.6276 23.352 19.9716 23.304 19.0116 23.304C18.8196 23.304 18.7236 23.064 18.7236 22.584C18.7236 22.072 18.8196 21.816 19.0116 21.816L25.7796 21.912C33.5556 31.768 38.1316 37.608 39.5076 39.432H39.6036C39.4756 31.048 39.3636 26.264 39.2676 25.08C39.1716 23.896 38.9156 23.304 38.4996 23.304H36.8196C36.5956 23.304 36.4836 23.064 36.4836 22.584C36.4836 22.072 36.5956 21.816 36.8196 21.816L40.8036 21.912ZM53.6811 45L48.5451 45.096C48.3211 45.096 48.2091 44.856 48.2091 44.376C48.2091 43.896 48.2891 43.656 48.4491 43.656H50.8011C51.1851 43.656 51.3771 43.384 51.3771 42.84V27.096C51.3771 24.568 51.0251 23.304 50.3211 23.304H48.6411C48.2891 23.304 48.1131 23.064 48.1131 22.584C48.1131 22.072 48.2571 21.816 48.5451 21.816C50.2091 21.88 51.8891 21.912 53.5851 21.912H58.2411C62.4011 21.912 65.7611 23.048 68.3211 25.32C70.9131 27.56 72.2091 30.36 72.2091 33.72C72.2091 37.08 70.9451 39.8 68.4171 41.88C65.9211 43.96 62.7531 45 58.9131 45H53.6811ZM56.6091 23.352C55.8411 23.352 55.4571 23.816 55.4571 24.744V39.72C55.4571 42.216 55.7931 43.464 56.4651 43.464H58.1931C61.1371 43.464 63.3931 42.632 64.9611 40.968C66.5611 39.304 67.3611 36.984 67.3611 34.008C67.3611 31 66.4971 28.504 64.7691 26.52C63.0411 24.536 60.3691 23.48 56.7531 23.352C56.6891 23.352 56.6411 23.352 56.6091 23.352ZM76.4848 21.816L80.2768 21.912C80.6288 21.912 80.9328 21.912 81.1888 21.912L86.1808 21.816C86.4048 21.816 86.5168 22.056 86.5168 22.536C86.5168 22.984 86.3888 23.208 86.1328 23.208H83.9248C83.5088 23.208 83.3008 23.464 83.3008 23.976V39.864C83.3008 42.296 83.6208 43.512 84.2608 43.512H86.6608C86.9168 43.512 87.0448 43.768 87.0448 44.28C87.0448 44.76 86.9488 45 86.7568 45L81.1888 44.952L76.3888 45.096C76.1648 45.096 76.0528 44.856 76.0528 44.376C76.0528 43.896 76.1488 43.656 76.3408 43.656H78.5008C78.8528 43.656 79.0608 43.592 79.1248 43.464C79.1888 43.304 79.2208 42.904 79.2208 42.264V27.144C79.2208 24.584 78.9008 23.304 78.2608 23.304H76.5328C76.1488 23.304 75.9568 23.064 75.9568 22.584C75.9568 22.072 76.1328 21.816 76.4848 21.816ZM91.2516 45L87.4596 45.096C87.2356 45.096 87.1236 44.888 87.1236 44.472C87.1236 44.056 87.2356 43.848 87.4596 43.848H88.9956C89.3476 43.848 89.6036 43.704 89.7636 43.416C90.4996 42.2 91.9716 38.968 94.1796 33.72C96.3876 28.44 97.9716 24.44 98.9316 21.72C99.0596 21.432 99.3636 21.288 99.8436 21.288C100.356 21.288 100.676 21.448 100.804 21.768C101.188 23.368 102.308 26.392 104.164 30.84C106.052 35.288 107.7 39 109.108 41.976C109.492 42.744 109.844 43.24 110.164 43.464C110.484 43.688 110.98 43.8 111.652 43.8C111.844 43.8 111.94 44.024 111.94 44.472C111.94 44.888 111.86 45.096 111.7 45.096L107.092 45L101.908 45.096C101.716 45.096 101.62 44.888 101.62 44.472C101.62 44.056 101.716 43.848 101.908 43.848H104.212C104.564 43.848 104.74 43.704 104.74 43.416C104.74 43.384 103.844 40.92 102.052 36.024H95.3796C93.8116 39.896 93.0276 42.168 93.0276 42.84C93.0276 43.48 93.2196 43.8 93.6036 43.8H95.5716C95.8276 43.8 95.9556 44.024 95.9556 44.472C95.9556 44.888 95.8596 45.096 95.6676 45.096L91.2516 45ZM101.428 34.392C101.332 34.104 100.5 31.672 98.9316 27.096H98.7876C98.0196 29.304 97.1076 31.736 96.0516 34.392H101.428ZM142.873 38.328C142.937 37.976 143.209 37.8 143.689 37.8C144.201 37.8 144.457 37.944 144.457 38.232L144.073 44.904C144.073 45.16 143.817 45.288 143.305 45.288C142.825 45.288 142.585 45.16 142.585 44.904V43.752C139.449 45 136.377 45.624 133.369 45.624C127.865 45.624 123.289 44.248 119.641 41.496C115.993 38.712 114.169 34.872 114.169 29.976C114.169 26.296 115.129 23.08 117.049 20.328C118.969 17.544 121.401 15.496 124.345 14.184C127.289 12.84 130.297 12.168 133.369 12.168C136.473 12.168 139.241 12.792 141.673 14.04V12.936C141.673 12.648 141.897 12.504 142.345 12.504C142.825 12.504 143.065 12.648 143.065 12.936C143.065 15.528 143.225 17.896 143.545 20.04C143.609 20.36 143.369 20.52 142.825 20.52C142.281 20.52 141.993 20.36 141.961 20.04L141.577 17.784C139.081 15.48 136.089 14.328 132.601 14.328C129.145 14.328 126.201 15.608 123.769 18.168C121.337 20.696 120.121 24.296 120.121 28.968C120.121 33.608 121.401 37.192 123.961 39.72C126.553 42.216 129.785 43.464 133.657 43.464C136.793 43.464 139.769 42.504 142.585 40.584L142.873 38.328ZM149.236 45L145.444 45.096C145.22 45.096 145.108 44.888 145.108 44.472C145.108 44.056 145.22 43.848 145.444 43.848H146.98C147.332 43.848 147.588 43.704 147.748 43.416C148.484 42.2 149.956 38.968 152.164 33.72C154.372 28.44 155.956 24.44 156.916 21.72C157.044 21.432 157.348 21.288 157.828 21.288C158.34 21.288 158.66 21.448 158.788 21.768C159.172 23.368 160.292 26.392 162.148 30.84C164.036 35.288 165.684 39 167.092 41.976C167.476 42.744 167.828 43.24 168.148 43.464C168.468 43.688 168.964 43.8 169.636 43.8C169.828 43.8 169.924 44.024 169.924 44.472C169.924 44.888 169.844 45.096 169.684 45.096L165.076 45L159.892 45.096C159.7 45.096 159.604 44.888 159.604 44.472C159.604 44.056 159.7 43.848 159.892 43.848H162.196C162.548 43.848 162.724 43.704 162.724 43.416C162.724 43.384 161.828 40.92 160.036 36.024H153.364C151.796 39.896 151.012 42.168 151.012 42.84C151.012 43.48 151.204 43.8 151.588 43.8H153.556C153.812 43.8 153.94 44.024 153.94 44.472C153.94 44.888 153.844 45.096 153.652 45.096L149.236 45ZM159.412 34.392C159.316 34.104 158.484 31.672 156.916 27.096H156.772C156.004 29.304 155.092 31.736 154.036 34.392H159.412ZM177.337 45L172.201 45.096C171.977 45.096 171.865 44.856 171.865 44.376C171.865 43.896 171.945 43.656 172.105 43.656H174.457C174.841 43.656 175.033 43.384 175.033 42.84V27.096C175.033 24.568 174.681 23.304 173.977 23.304H172.297C171.945 23.304 171.769 23.064 171.769 22.584C171.769 22.072 171.913 21.816 172.201 21.816C175.049 21.88 177.961 21.912 180.937 21.912C183.913 21.912 186.217 22.552 187.849 23.832C189.513 25.08 190.345 26.632 190.345 28.488C190.345 30.312 189.689 31.784 188.377 32.904C187.065 34.024 185.481 34.664 183.625 34.824C184.553 35.464 185.753 36.744 187.225 38.664C187.769 39.4 188.617 40.248 189.769 41.208C190.921 42.136 192.217 42.968 193.657 43.704C193.017 44.984 192.041 45.624 190.729 45.624C189.417 45.624 188.265 45.144 187.273 44.184C186.281 43.224 185.513 42.168 184.969 41.016C184.425 39.832 183.817 38.616 183.145 37.368C182.505 36.12 181.897 35.304 181.321 34.92L179.113 34.776V40.344C179.113 42.456 179.433 43.512 180.073 43.512H182.089C182.345 43.512 182.473 43.768 182.473 44.28C182.473 44.76 182.393 45 182.233 45H177.337ZM180.073 23.352C179.433 23.352 179.113 23.88 179.113 24.936V32.904C179.561 33 180.009 33.048 180.457 33.048C181.897 33.048 183.145 32.648 184.201 31.848C185.257 31.048 185.785 29.96 185.785 28.584C185.785 27.208 185.305 25.992 184.345 24.936C183.417 23.88 181.993 23.352 180.073 23.352ZM196.297 21.816L201.193 21.912H211.129V21.144C211.129 20.952 211.337 20.856 211.753 20.856C212.201 20.856 212.425 20.952 212.425 21.144C212.425 23.672 212.537 25.48 212.761 26.568C212.825 26.76 212.649 26.856 212.233 26.856C211.689 26.856 211.417 26.76 211.417 26.568C210.969 25.096 210.537 24.264 210.121 24.072C208.777 23.592 206.825 23.352 204.265 23.352C203.817 23.384 203.513 23.512 203.353 23.736C203.193 23.96 203.113 24.36 203.113 24.936V32.808C206.985 32.68 209.113 32.504 209.497 32.28L209.833 30.264C209.897 30.104 210.121 30.024 210.505 30.024C210.921 30.024 211.129 30.136 211.129 30.36C211.001 31.288 210.937 32.328 210.937 33.48C210.937 34.6 211.001 35.624 211.129 36.552C211.129 36.744 210.905 36.84 210.457 36.84C210.041 36.84 209.833 36.776 209.833 36.648L209.449 34.584C209.065 34.36 206.953 34.184 203.113 34.056V39.864C203.113 42.264 203.433 43.464 204.073 43.464H205.609C209.129 43.4 211.561 42.904 212.905 41.976L213.145 40.104C213.209 39.912 213.369 39.816 213.625 39.816C213.913 39.816 214.105 39.816 214.201 39.816C214.393 39.88 214.489 39.976 214.489 40.104C214.297 41.448 214.201 43.336 214.201 45.768C214.201 45.928 213.977 46.008 213.529 46.008C213.113 46.008 212.905 45.928 212.905 45.768V45H204.361L196.201 45.096C195.977 45.096 195.865 44.856 195.865 44.376C195.865 43.896 195.961 43.656 196.153 43.656H198.313C198.665 43.656 198.873 43.592 198.937 43.464C199.001 43.304 199.033 42.904 199.033 42.264V27.144C199.033 24.584 198.713 23.304 198.073 23.304H196.345C195.961 23.304 195.769 23.064 195.769 22.584C195.769 22.072 195.945 21.816 196.297 21.816ZM232.288 21.72L233.296 27C233.296 27.256 233.104 27.384 232.72 27.384C232.336 27.384 232.096 27.256 232 27C231.584 25.816 230.928 24.84 230.032 24.072C229.136 23.304 228.16 22.92 227.104 22.92C226.08 22.888 225.168 23.176 224.368 23.784C223.6 24.392 223.216 25.144 223.216 26.04C223.216 26.904 223.472 27.704 223.984 28.44C224.528 29.144 225.184 29.752 225.952 30.264C226.72 30.776 227.568 31.368 228.496 32.04C229.424 32.68 230.272 33.32 231.04 33.96C231.808 34.6 232.448 35.432 232.96 36.456C233.504 37.48 233.776 38.584 233.776 39.768C233.776 41.624 232.96 43.064 231.328 44.088C229.696 45.112 227.92 45.624 226 45.624C224.112 45.624 222.368 45.256 220.768 44.52C220.768 44.904 220.736 45.144 220.672 45.24C220.64 45.336 220.48 45.4 220.192 45.432H220C219.744 45.432 219.6 45.304 219.568 45.048C219.504 44.28 219.376 43.224 219.184 41.88C218.992 40.536 218.848 39.448 218.752 38.616C218.752 38.296 218.944 38.136 219.328 38.136C219.744 38.136 219.968 38.216 220 38.376C220.448 39.944 221.232 41.304 222.352 42.456C223.472 43.576 224.64 44.136 225.856 44.136C227.072 44.136 228.08 43.848 228.88 43.272C229.68 42.664 230.08 41.832 230.08 40.776C230.08 39.72 229.712 38.76 228.976 37.896C228.272 37 227.408 36.2 226.384 35.496C225.36 34.792 224.336 34.088 223.312 33.384C222.288 32.648 221.408 31.752 220.672 30.696C219.968 29.64 219.616 28.488 219.616 27.24C219.616 25.448 220.368 24.024 221.872 22.968C223.408 21.912 225.216 21.384 227.296 21.384C228.48 21.384 229.744 21.608 231.088 22.056C231.024 21.864 230.992 21.64 230.992 21.384C230.992 21.096 231.136 20.952 231.424 20.952C231.744 20.952 231.952 21 232.048 21.096C232.144 21.16 232.224 21.368 232.288 21.72Z" fill="black"/>
</svg>
